<svg width="32" height="32" viewBox="0 0 32 32" fill="none" xmlns="http://www.w3.org/2000/svg">
  <defs>
    <!-- Metallic gradient for the robot head -->
    <linearGradient id="metal_robot" x1="0" y1="0" x2="32" y2="32" gradientUnits="userSpaceOnUse">
      <stop offset="0%" stop-color="#ffffff" /> <!-- High point highlight -->
      <stop offset="30%" stop-color="#a1a1a1" /> <!-- Metallic grey -->
      <stop offset="60%" stop-color="#4d4d4d" /> <!-- Dark metallic -->
      <stop offset="100%" stop-color="#2a2a2a" /> <!-- Deep metallic black -->
    </linearGradient>
    
    <!-- Subtle glow/shadow for depth -->
    <filter id="robot_glow" x="-2" y="-2" width="36" height="36" filterUnits="userSpaceOnUse">
      <feGaussianBlur stdDeviation="0.5" result="blur"/>
      <feOffset dx="0" dy="1" in="blur" result="offsetBlur"/>
      <feMerge>
        <feMergeNode in="offsetBlur"/>
        <feMergeNode in="SourceGraphic"/>
      </feMerge>
    </filter>
  </defs>
  
  <!-- Solid Pure Black Background -->
  <rect width="32" height="32" rx="8" fill="#000000" />
  
  <!-- Minimalist Futuristic Robot Head -->
  <g filter="url(#robot_glow)">
    <!-- Main head shape -->
    <path d="M8 12C8 10.3431 9.34315 9 11 9H21C22.6569 9 24 10.3431 24 12V20C24 21.6569 22.6569 23 21 23H11C9.34315 23 8 21.6569 8 20V12Z" fill="url(#metal_robot)" />
    
    <!-- Visor/Eyes area -->
    <rect x="10" y="12" width="12" height="3" rx="1.5" fill="#000000" />
    
    <!-- Glowing Eye dot (Subtle cyan to match typical tech vibe, or keep it monochrome) -->
    <circle cx="13" cy="13.5" r="0.8" fill="#ffffff" />
    
    <!-- Antenna/Sensors -->
    <rect x="15" y="6" width="2" height="3" fill="url(#metal_robot)" />
    <circle cx="16" cy="6" r="1.5" fill="url(#metal_robot)" />
    
    <!-- Jaw/Bottom detail -->
    <path d="M12 23V25H20V23" stroke="url(#metal_robot)" stroke-width="1.5" stroke-linecap="round" />
  </g>
</svg>